<mxfile host="app.diagrams.net" modified="2021-12-03T13:01:00.569Z" agent="5.0 (Windows NT 10.0; Win64; x64) AppleWebKit/537.36 (KHTML, like Gecko) Chrome/96.0.4664.45 Safari/537.36" etag="8vzx-YhJYjzi_emjtRdo" version="15.8.8" type="github">
  <diagram id="RfBSMWaB_wtDX9nXpygW" name="Page-1">
    <mxGraphModel dx="1422" dy="762" grid="1" gridSize="10" guides="1" tooltips="1" connect="1" arrows="1" fold="1" page="1" pageScale="1" pageWidth="980" pageHeight="1390" math="0" shadow="0">
      <root>
        <mxCell id="0" />
        <mxCell id="1" parent="0" />
        <mxCell id="bIuSFCN-ptNGRLUUuN7f-7" style="edgeStyle=orthogonalEdgeStyle;rounded=0;orthogonalLoop=1;jettySize=auto;html=1;entryX=0.5;entryY=0;entryDx=0;entryDy=0;" parent="1" source="mFvbt3JzNxKFWcf2Eg8F-2" target="bIuSFCN-ptNGRLUUuN7f-3" edge="1">
          <mxGeometry relative="1" as="geometry" />
        </mxCell>
        <mxCell id="mFvbt3JzNxKFWcf2Eg8F-2" value="RenderPipelineMnager" style="rounded=1;whiteSpace=wrap;html=1;" parent="1" vertex="1">
          <mxGeometry x="40" y="30" width="140" height="60" as="geometry" />
        </mxCell>
        <mxCell id="mFvbt3JzNxKFWcf2Eg8F-6" value="ScriptableRenderContext" style="rounded=1;whiteSpace=wrap;html=1;" parent="1" vertex="1">
          <mxGeometry x="1480" y="165" width="160" height="70" as="geometry" />
        </mxCell>
        <mxCell id="bIuSFCN-ptNGRLUUuN7f-3" value="DoRenderLoop_Internal" style="swimlane;fontStyle=0;childLayout=stackLayout;horizontal=1;startSize=30;horizontalStack=0;resizeParent=1;resizeParentMax=0;resizeLast=0;collapsible=1;marginBottom=0;" parent="1" vertex="1">
          <mxGeometry x="40" y="170" width="140" height="150" as="geometry" />
        </mxCell>
        <mxCell id="bIuSFCN-ptNGRLUUuN7f-4" value="1.CreatePipeline" style="text;strokeColor=none;fillColor=none;align=left;verticalAlign=middle;spacingLeft=4;spacingRight=4;overflow=hidden;points=[[0,0.5],[1,0.5]];portConstraint=eastwest;rotatable=0;" parent="bIuSFCN-ptNGRLUUuN7f-3" vertex="1">
          <mxGeometry y="30" width="140" height="30" as="geometry" />
        </mxCell>
        <mxCell id="bIuSFCN-ptNGRLUUuN7f-5" value="2.CreateRenderContext" style="text;strokeColor=none;fillColor=none;align=left;verticalAlign=middle;spacingLeft=4;spacingRight=4;overflow=hidden;points=[[0,0.5],[1,0.5]];portConstraint=eastwest;rotatable=0;" parent="bIuSFCN-ptNGRLUUuN7f-3" vertex="1">
          <mxGeometry y="60" width="140" height="30" as="geometry" />
        </mxCell>
        <mxCell id="bIuSFCN-ptNGRLUUuN7f-6" value="3.GetCameras" style="text;strokeColor=none;fillColor=none;align=left;verticalAlign=middle;spacingLeft=4;spacingRight=4;overflow=hidden;points=[[0,0.5],[1,0.5]];portConstraint=eastwest;rotatable=0;" parent="bIuSFCN-ptNGRLUUuN7f-3" vertex="1">
          <mxGeometry y="90" width="140" height="30" as="geometry" />
        </mxCell>
        <mxCell id="bIuSFCN-ptNGRLUUuN7f-8" value="4.CallRender" style="text;strokeColor=none;fillColor=none;align=left;verticalAlign=middle;spacingLeft=4;spacingRight=4;overflow=hidden;points=[[0,0.5],[1,0.5]];portConstraint=eastwest;rotatable=0;" parent="bIuSFCN-ptNGRLUUuN7f-3" vertex="1">
          <mxGeometry y="120" width="140" height="30" as="geometry" />
        </mxCell>
        <mxCell id="bIuSFCN-ptNGRLUUuN7f-17" style="edgeStyle=orthogonalEdgeStyle;rounded=0;orthogonalLoop=1;jettySize=auto;html=1;entryX=0.5;entryY=0;entryDx=0;entryDy=0;" parent="1" source="bIuSFCN-ptNGRLUUuN7f-11" target="bIuSFCN-ptNGRLUUuN7f-24" edge="1">
          <mxGeometry relative="1" as="geometry">
            <mxPoint x="370" y="390" as="targetPoint" />
          </mxGeometry>
        </mxCell>
        <mxCell id="bIuSFCN-ptNGRLUUuN7f-11" value="RenderPipeline" style="rounded=1;whiteSpace=wrap;html=1;" parent="1" vertex="1">
          <mxGeometry x="300" y="260" width="120" height="60" as="geometry" />
        </mxCell>
        <mxCell id="bIuSFCN-ptNGRLUUuN7f-18" style="edgeStyle=orthogonalEdgeStyle;rounded=0;orthogonalLoop=1;jettySize=auto;html=1;entryX=0;entryY=0.5;entryDx=0;entryDy=0;endArrow=block;endFill=0;shape=flexArrow;" parent="1" source="bIuSFCN-ptNGRLUUuN7f-8" target="bIuSFCN-ptNGRLUUuN7f-24" edge="1">
          <mxGeometry relative="1" as="geometry">
            <mxPoint x="295" y="435" as="targetPoint" />
          </mxGeometry>
        </mxCell>
        <mxCell id="bIuSFCN-ptNGRLUUuN7f-20" value="" style="shape=curlyBracket;whiteSpace=wrap;html=1;rounded=1;" parent="1" vertex="1">
          <mxGeometry x="530" y="151.25" width="10" height="677.5" as="geometry" />
        </mxCell>
        <mxCell id="bIuSFCN-ptNGRLUUuN7f-21" value="BeginFrameRendering" style="swimlane;fontStyle=0;childLayout=stackLayout;horizontal=1;startSize=30;horizontalStack=0;resizeParent=1;resizeParentMax=0;resizeLast=0;collapsible=1;marginBottom=0;" parent="1" vertex="1">
          <mxGeometry x="550" y="161.25" width="150" height="60" as="geometry">
            <mxRectangle x="490" y="215" width="150" height="30" as="alternateBounds" />
          </mxGeometry>
        </mxCell>
        <mxCell id="bIuSFCN-ptNGRLUUuN7f-61" style="edgeStyle=orthogonalEdgeStyle;rounded=0;orthogonalLoop=1;jettySize=auto;html=1;endArrow=classic;endFill=1;entryX=0.1;entryY=0.5;entryDx=0;entryDy=0;entryPerimeter=0;shape=flexArrow;" parent="1" source="bIuSFCN-ptNGRLUUuN7f-24" target="bIuSFCN-ptNGRLUUuN7f-20" edge="1">
          <mxGeometry relative="1" as="geometry">
            <mxPoint x="520" y="500" as="targetPoint" />
          </mxGeometry>
        </mxCell>
        <mxCell id="bIuSFCN-ptNGRLUUuN7f-24" value="RenderFunction" style="swimlane;startSize=23;" parent="1" vertex="1">
          <mxGeometry x="260" y="390" width="200" height="200" as="geometry" />
        </mxCell>
        <mxCell id="bIuSFCN-ptNGRLUUuN7f-25" value="Render" style="swimlane;fontStyle=0;childLayout=stackLayout;horizontal=1;startSize=30;horizontalStack=0;resizeParent=1;resizeParentMax=0;resizeLast=0;collapsible=1;marginBottom=0;" parent="bIuSFCN-ptNGRLUUuN7f-24" vertex="1">
          <mxGeometry x="30" y="40" width="140" height="60" as="geometry" />
        </mxCell>
        <mxCell id="bIuSFCN-ptNGRLUUuN7f-29" value="ProcessRenderRequests" style="swimlane;fontStyle=0;childLayout=stackLayout;horizontal=1;startSize=30;horizontalStack=0;resizeParent=1;resizeParentMax=0;resizeLast=0;collapsible=1;marginBottom=0;" parent="bIuSFCN-ptNGRLUUuN7f-24" vertex="1">
          <mxGeometry x="30" y="120" width="140" height="60" as="geometry">
            <mxRectangle x="30" y="120" width="170" height="30" as="alternateBounds" />
          </mxGeometry>
        </mxCell>
        <mxCell id="bIuSFCN-ptNGRLUUuN7f-34" value="SetupPerFrameShaderContants" style="swimlane;fontStyle=0;childLayout=stackLayout;horizontal=1;startSize=30;horizontalStack=0;resizeParent=1;resizeParentMax=0;resizeLast=0;collapsible=1;marginBottom=0;" parent="1" vertex="1">
          <mxGeometry x="550" y="256.25" width="180" height="60" as="geometry">
            <mxRectangle x="490" y="310" width="200" height="30" as="alternateBounds" />
          </mxGeometry>
        </mxCell>
        <mxCell id="bIuSFCN-ptNGRLUUuN7f-38" value="SortCameras" style="swimlane;fontStyle=0;childLayout=stackLayout;horizontal=1;startSize=30;horizontalStack=0;resizeParent=1;resizeParentMax=0;resizeLast=0;collapsible=1;marginBottom=0;" parent="1" vertex="1">
          <mxGeometry x="550" y="346.25" width="150" height="60" as="geometry">
            <mxRectangle x="490" y="215" width="150" height="30" as="alternateBounds" />
          </mxGeometry>
        </mxCell>
        <mxCell id="bIuSFCN-ptNGRLUUuN7f-49" value="CameraRender" style="swimlane;startSize=23;" parent="1" vertex="1">
          <mxGeometry x="550" y="476.25" width="170" height="180" as="geometry" />
        </mxCell>
        <mxCell id="bIuSFCN-ptNGRLUUuN7f-50" value="RenderCameraStack" style="swimlane;fontStyle=0;childLayout=stackLayout;horizontal=1;startSize=30;horizontalStack=0;resizeParent=1;resizeParentMax=0;resizeLast=0;collapsible=1;marginBottom=0;" parent="bIuSFCN-ptNGRLUUuN7f-49" vertex="1">
          <mxGeometry x="15" y="30" width="140" height="60" as="geometry" />
        </mxCell>
        <mxCell id="bIuSFCN-ptNGRLUUuN7f-51" value="RenderSingle" style="swimlane;fontStyle=0;childLayout=stackLayout;horizontal=1;startSize=30;horizontalStack=0;resizeParent=1;resizeParentMax=0;resizeLast=0;collapsible=1;marginBottom=0;" parent="bIuSFCN-ptNGRLUUuN7f-49" vertex="1">
          <mxGeometry x="15" y="100" width="140" height="60" as="geometry">
            <mxRectangle x="30" y="120" width="170" height="30" as="alternateBounds" />
          </mxGeometry>
        </mxCell>
        <mxCell id="bIuSFCN-ptNGRLUUuN7f-53" value="" style="shape=curlyBracket;whiteSpace=wrap;html=1;rounded=1;" parent="1" vertex="1">
          <mxGeometry x="740" y="426.25" width="20" height="250" as="geometry" />
        </mxCell>
        <mxCell id="bIuSFCN-ptNGRLUUuN7f-54" value="BeginCameraRendering" style="swimlane;fontStyle=0;childLayout=stackLayout;horizontal=1;startSize=30;horizontalStack=0;resizeParent=1;resizeParentMax=0;resizeLast=0;collapsible=1;marginBottom=0;" parent="1" vertex="1">
          <mxGeometry x="770" y="406.25" width="150" height="60" as="geometry">
            <mxRectangle x="490" y="215" width="150" height="30" as="alternateBounds" />
          </mxGeometry>
        </mxCell>
        <mxCell id="bIuSFCN-ptNGRLUUuN7f-55" value="EndCameraRendering" style="swimlane;fontStyle=0;childLayout=stackLayout;horizontal=1;startSize=30;horizontalStack=0;resizeParent=1;resizeParentMax=0;resizeLast=0;collapsible=1;marginBottom=0;" parent="1" vertex="1">
          <mxGeometry x="770" y="623.75" width="150" height="60" as="geometry">
            <mxRectangle x="490" y="215" width="150" height="30" as="alternateBounds" />
          </mxGeometry>
        </mxCell>
        <mxCell id="bIuSFCN-ptNGRLUUuN7f-56" value="UpdateVolumeFramework" style="swimlane;fontStyle=0;childLayout=stackLayout;horizontal=1;startSize=30;horizontalStack=0;resizeParent=1;resizeParentMax=0;resizeLast=0;collapsible=1;marginBottom=0;" parent="1" vertex="1">
          <mxGeometry x="770" y="476.25" width="150" height="60" as="geometry">
            <mxRectangle x="490" y="215" width="150" height="30" as="alternateBounds" />
          </mxGeometry>
        </mxCell>
        <mxCell id="bIuSFCN-ptNGRLUUuN7f-63" style="edgeStyle=orthogonalEdgeStyle;shape=flexArrow;rounded=0;orthogonalLoop=1;jettySize=auto;html=1;endArrow=classic;endFill=1;" parent="1" source="bIuSFCN-ptNGRLUUuN7f-57" edge="1">
          <mxGeometry relative="1" as="geometry">
            <mxPoint x="1030" y="890" as="targetPoint" />
            <Array as="points">
              <mxPoint x="960" y="581" />
              <mxPoint x="960" y="290" />
              <mxPoint x="1030" y="290" />
            </Array>
          </mxGeometry>
        </mxCell>
        <mxCell id="bIuSFCN-ptNGRLUUuN7f-57" value="RenderSingleCamera" style="swimlane;fontStyle=0;childLayout=stackLayout;horizontal=1;startSize=30;horizontalStack=0;resizeParent=1;resizeParentMax=0;resizeLast=0;collapsible=1;marginBottom=0;" parent="1" vertex="1">
          <mxGeometry x="770" y="551.25" width="150" height="60" as="geometry">
            <mxRectangle x="490" y="215" width="150" height="30" as="alternateBounds" />
          </mxGeometry>
        </mxCell>
        <mxCell id="bIuSFCN-ptNGRLUUuN7f-58" value="EndFrameRendering" style="swimlane;fontStyle=0;childLayout=stackLayout;horizontal=1;startSize=30;horizontalStack=0;resizeParent=1;resizeParentMax=0;resizeLast=0;collapsible=1;marginBottom=0;" parent="1" vertex="1">
          <mxGeometry x="555" y="751.25" width="150" height="60" as="geometry">
            <mxRectangle x="490" y="215" width="150" height="30" as="alternateBounds" />
          </mxGeometry>
        </mxCell>
        <mxCell id="bIuSFCN-ptNGRLUUuN7f-59" value="SciptableRenderer" style="rounded=1;whiteSpace=wrap;html=1;" parent="1" vertex="1">
          <mxGeometry x="1290" y="170" width="120" height="60" as="geometry" />
        </mxCell>
        <mxCell id="bIuSFCN-ptNGRLUUuN7f-60" value="CommandBuffer" style="rounded=1;whiteSpace=wrap;html=1;" parent="1" vertex="1">
          <mxGeometry x="1700" y="170" width="120" height="60" as="geometry" />
        </mxCell>
        <mxCell id="bIuSFCN-ptNGRLUUuN7f-64" value="TryGetCullingParameters" style="swimlane;fontStyle=0;childLayout=stackLayout;horizontal=1;startSize=30;horizontalStack=0;resizeParent=1;resizeParentMax=0;resizeLast=0;collapsible=1;marginBottom=0;" parent="1" vertex="1">
          <mxGeometry x="1050" y="296.25" width="150" height="60" as="geometry">
            <mxRectangle x="490" y="215" width="150" height="30" as="alternateBounds" />
          </mxGeometry>
        </mxCell>
        <mxCell id="bIuSFCN-ptNGRLUUuN7f-68" style="edgeStyle=orthogonalEdgeStyle;rounded=0;orthogonalLoop=1;jettySize=auto;html=1;endArrow=classic;endFill=1;" parent="1" source="bIuSFCN-ptNGRLUUuN7f-65" target="bIuSFCN-ptNGRLUUuN7f-59" edge="1">
          <mxGeometry relative="1" as="geometry" />
        </mxCell>
        <mxCell id="bIuSFCN-ptNGRLUUuN7f-65" value="UniversalRenderPipelineAsset" style="rounded=1;whiteSpace=wrap;html=1;" parent="1" vertex="1">
          <mxGeometry x="1240" y="70" width="220" height="60" as="geometry" />
        </mxCell>
        <mxCell id="bIuSFCN-ptNGRLUUuN7f-69" value="SetupCullingParameters" style="swimlane;fontStyle=0;childLayout=stackLayout;horizontal=1;startSize=30;horizontalStack=0;resizeParent=1;resizeParentMax=0;resizeLast=0;collapsible=1;marginBottom=0;" parent="1" vertex="1">
          <mxGeometry x="1275" y="406.25" width="150" height="60" as="geometry">
            <mxRectangle x="490" y="215" width="150" height="30" as="alternateBounds" />
          </mxGeometry>
        </mxCell>
        <mxCell id="bIuSFCN-ptNGRLUUuN7f-71" value="Cull" style="swimlane;fontStyle=0;childLayout=stackLayout;horizontal=1;startSize=30;horizontalStack=0;resizeParent=1;resizeParentMax=0;resizeLast=0;collapsible=1;marginBottom=0;" parent="1" vertex="1">
          <mxGeometry x="1485" y="500" width="150" height="60" as="geometry">
            <mxRectangle x="490" y="215" width="150" height="30" as="alternateBounds" />
          </mxGeometry>
        </mxCell>
        <mxCell id="bIuSFCN-ptNGRLUUuN7f-74" value="InitRenderingData" style="swimlane;fontStyle=0;childLayout=stackLayout;horizontal=1;startSize=30;horizontalStack=0;resizeParent=1;resizeParentMax=0;resizeLast=0;collapsible=1;marginBottom=0;" parent="1" vertex="1">
          <mxGeometry x="1050" y="570" width="150" height="60" as="geometry">
            <mxRectangle x="490" y="215" width="150" height="30" as="alternateBounds" />
          </mxGeometry>
        </mxCell>
        <mxCell id="xARUxOqzdt2QB9hRTDa9-7" style="edgeStyle=orthogonalEdgeStyle;shape=flexArrow;rounded=0;orthogonalLoop=1;jettySize=auto;html=1;entryX=0.1;entryY=0.5;entryDx=0;entryDy=0;entryPerimeter=0;endArrow=classic;endFill=1;" edge="1" parent="1" source="bIuSFCN-ptNGRLUUuN7f-75" target="xARUxOqzdt2QB9hRTDa9-2">
          <mxGeometry relative="1" as="geometry">
            <Array as="points">
              <mxPoint x="1730" y="641" />
              <mxPoint x="1730" y="1035" />
            </Array>
          </mxGeometry>
        </mxCell>
        <mxCell id="bIuSFCN-ptNGRLUUuN7f-75" value="Setup" style="swimlane;fontStyle=0;childLayout=stackLayout;horizontal=1;startSize=30;horizontalStack=0;resizeParent=1;resizeParentMax=0;resizeLast=0;collapsible=1;marginBottom=0;" parent="1" vertex="1">
          <mxGeometry x="1275" y="611.25" width="150" height="60" as="geometry">
            <mxRectangle x="490" y="215" width="150" height="30" as="alternateBounds" />
          </mxGeometry>
        </mxCell>
        <mxCell id="xARUxOqzdt2QB9hRTDa9-9" style="edgeStyle=orthogonalEdgeStyle;shape=flexArrow;rounded=0;orthogonalLoop=1;jettySize=auto;html=1;entryX=0.1;entryY=0.5;entryDx=0;entryDy=0;entryPerimeter=0;endArrow=classic;endFill=1;" edge="1" parent="1" source="bIuSFCN-ptNGRLUUuN7f-77" target="xARUxOqzdt2QB9hRTDa9-8">
          <mxGeometry relative="1" as="geometry">
            <Array as="points">
              <mxPoint x="1470" y="715" />
              <mxPoint x="1470" y="1035" />
            </Array>
          </mxGeometry>
        </mxCell>
        <mxCell id="bIuSFCN-ptNGRLUUuN7f-77" value="Excute" style="swimlane;fontStyle=0;childLayout=stackLayout;horizontal=1;startSize=30;horizontalStack=0;resizeParent=1;resizeParentMax=0;resizeLast=0;collapsible=1;marginBottom=0;" parent="1" vertex="1">
          <mxGeometry x="1275" y="687.5" width="150" height="55" as="geometry">
            <mxRectangle x="490" y="215" width="150" height="30" as="alternateBounds" />
          </mxGeometry>
        </mxCell>
        <mxCell id="bIuSFCN-ptNGRLUUuN7f-80" value="Submit" style="swimlane;fontStyle=0;childLayout=stackLayout;horizontal=1;startSize=30;horizontalStack=0;resizeParent=1;resizeParentMax=0;resizeLast=0;collapsible=1;marginBottom=0;" parent="1" vertex="1">
          <mxGeometry x="1050" y="820" width="150" height="55" as="geometry">
            <mxRectangle x="490" y="215" width="150" height="30" as="alternateBounds" />
          </mxGeometry>
        </mxCell>
        <mxCell id="bIuSFCN-ptNGRLUUuN7f-81" value="UniversalRenderPipeline" style="rounded=1;whiteSpace=wrap;html=1;" parent="1" vertex="1">
          <mxGeometry x="1060" y="166" width="155" height="69" as="geometry" />
        </mxCell>
        <mxCell id="bIuSFCN-ptNGRLUUuN7f-84" value="ExcuteCommandBuffer" style="swimlane;fontStyle=0;childLayout=stackLayout;horizontal=1;startSize=30;horizontalStack=0;resizeParent=1;resizeParentMax=0;resizeLast=0;collapsible=1;marginBottom=0;" parent="1" vertex="1">
          <mxGeometry x="1050" y="450" width="150" height="60" as="geometry">
            <mxRectangle x="490" y="215" width="150" height="30" as="alternateBounds" />
          </mxGeometry>
        </mxCell>
        <mxCell id="bIuSFCN-ptNGRLUUuN7f-85" value="ExcuteCommandBuffer" style="swimlane;fontStyle=0;childLayout=stackLayout;horizontal=1;startSize=30;horizontalStack=0;resizeParent=1;resizeParentMax=0;resizeLast=0;collapsible=1;marginBottom=0;" parent="1" vertex="1">
          <mxGeometry x="1050" y="751.25" width="150" height="60" as="geometry">
            <mxRectangle x="490" y="215" width="150" height="30" as="alternateBounds" />
          </mxGeometry>
        </mxCell>
        <mxCell id="bIuSFCN-ptNGRLUUuN7f-87" value="Clear" style="swimlane;fontStyle=0;childLayout=stackLayout;horizontal=1;startSize=30;horizontalStack=0;resizeParent=1;resizeParentMax=0;resizeLast=0;collapsible=1;marginBottom=0;" parent="1" vertex="1">
          <mxGeometry x="1275" y="340" width="150" height="60" as="geometry">
            <mxRectangle x="490" y="215" width="150" height="30" as="alternateBounds" />
          </mxGeometry>
        </mxCell>
        <mxCell id="xARUxOqzdt2QB9hRTDa9-2" value="" style="shape=curlyBracket;whiteSpace=wrap;html=1;rounded=1;" vertex="1" parent="1">
          <mxGeometry x="1760" y="875" width="20" height="320" as="geometry" />
        </mxCell>
        <mxCell id="xARUxOqzdt2QB9hRTDa9-8" value="" style="shape=curlyBracket;whiteSpace=wrap;html=1;rounded=1;" vertex="1" parent="1">
          <mxGeometry x="1510" y="840" width="20" height="390" as="geometry" />
        </mxCell>
        <mxCell id="xARUxOqzdt2QB9hRTDa9-10" value="Block" style="swimlane;fontStyle=0;childLayout=stackLayout;horizontal=1;startSize=30;horizontalStack=0;resizeParent=1;resizeParentMax=0;resizeLast=0;collapsible=1;marginBottom=0;" vertex="1" parent="1">
          <mxGeometry x="1550" y="930" width="150" height="60" as="geometry">
            <mxRectangle x="490" y="215" width="150" height="30" as="alternateBounds" />
          </mxGeometry>
        </mxCell>
      </root>
    </mxGraphModel>
  </diagram>
</mxfile>
